<?xml version="1.0" encoding="UTF-8" standalone="no"?>
<!-- Uploaded to: SVG Repo, www.svgrepo.com, Generator: SVG Repo Mixer Tools -->

<svg
   width="800px"
   height="800px"
   viewBox="0 0 512 512"
   version="1.1"
   id="svg4"
   sodipodi:docname="all-seeing-die.svg"
   inkscape:version="1.2.1 (9c6d41e410, 2022-07-14)"
   xmlns:inkscape="http://www.inkscape.org/namespaces/inkscape"
   xmlns:sodipodi="http://sodipodi.sourceforge.net/DTD/sodipodi-0.dtd"
   xmlns="http://www.w3.org/2000/svg"
   xmlns:svg="http://www.w3.org/2000/svg">
  <defs
     id="defs8" />
  <sodipodi:namedview
     id="namedview6"
     pagecolor="#505050"
     bordercolor="#eeeeee"
     borderopacity="1"
     inkscape:showpageshadow="0"
     inkscape:pageopacity="0"
     inkscape:pagecheckerboard="0"
     inkscape:deskcolor="#505050"
     showgrid="false"
     inkscape:zoom="0.71064232"
     inkscape:cx="341.94417"
     inkscape:cy="372.19849"
     inkscape:window-width="1920"
     inkscape:window-height="991"
     inkscape:window-x="-9"
     inkscape:window-y="-9"
     inkscape:window-maximized="1"
     inkscape:current-layer="svg4" />
  <path
     fill="#000000"
     d="M 248,20.3 72,132.6 248,128.8 Z m 16,0 v 108.5 l 175.7,3.8 z m 43.1,49.97 c 2.8,0.06 5.8,0.75 9.2,2.08 2.3,0.91 4.1,1.91 5.6,3.07 1.5,1.15 2.8,2.5 3.7,3.79 1.5,2.06 2.2,4.04 2.6,6.25 2.4,-1.77 5.2,-2.98 8.2,-3.84 3.4,-0.73 7.2,-0.35 11.1,1.23 4.6,1.82 8.1,4.19 10.3,7.11 2.2,2.93 3.5,5.97 4,9.13 0.3,1.71 0.3,3.41 0.1,5.01 -0.1,1.7 -0.6,3.3 -1.2,4.7 -0.5,1.5 -1.2,3 -2.3,4.3 -1,1.3 -2.1,2.6 -3.5,3.6 -2.5,2 -5.5,3.3 -9.1,3.9 -3.6,0.6 -7.7,0 -12.3,-1.8 -4,-1.6 -7,-3.8 -9,-6.7 -1.6,-2.6 -2.9,-5.5 -3.4,-8.4 -2,1.5 -4.2,2.5 -6.9,2.9 -3,0.6 -6.5,0 -10.7,-1.6 -2.4,-1 -4.5,-2.1 -6.2,-3.3 -1.8,-1.3 -3.2,-2.61 -4.3,-4.08 -2.1,-2.58 -3.2,-5.37 -3.5,-8.35 -0.2,-2.9 0.2,-5.65 1.1,-8.15 0.5,-1.29 1.3,-2.57 2.1,-3.92 1,-1.1 2,-2.21 3.1,-3.26 2.4,-1.77 5.2,-2.97 8.5,-3.53 0.9,-0.12 1.8,-0.17 2.8,-0.14 z M 208,75.56 c 4.8,0.05 10.9,3.57 9,10.04 -4,6.9 -10.3,12.17 -18,14.8 -7.4,2.5 -15,4.4 -22,1.9 -3,-2.3 -13,-9.4 -15,-3.4 -1.2,15.3 1,13 -11,17.8 V 92.3 c 10,-3.9 21,-4.5 31,1.3 8,4.2 19,1.5 24,-5.8 1,-6.5 -8,-4.5 -12,-3.3 -3,-8.3 7.8,-8.43 13,-8.9 0.3,-0.03 0.6,-0.04 1,-0.04 z m 100.5,4.46 c -0.9,0.01 -1.8,0.14 -2.8,0.36 -2.4,0.61 -4.2,2.17 -5.1,4.67 -1,2.42 -0.8,4.74 0.6,6.88 1.4,2.22 3.3,3.73 6,4.78 2.9,1.15 5.4,1.41 8,0.73 2.5,-0.56 4.3,-2.12 5.2,-4.54 1,-2.5 0.8,-4.82 -0.7,-7.01 -1.4,-2.14 -3.5,-3.77 -6.4,-4.92 -1.6,-0.66 -3.2,-0.96 -4.8,-0.95 z m 28.9,10.15 c -1.1,0.05 -2.2,0.27 -3.2,0.65 -2.7,1.17 -4.5,2.96 -5.4,5.39 -1,2.5 -0.9,5.09 0.4,7.59 1.2,2.6 3.6,4.6 7.2,6.1 2.9,1.1 5.8,1.3 8.6,0.6 2.8,-0.8 4.7,-2.7 5.8,-5.6 1.1,-2.9 1.1,-5.53 -0.5,-8.01 -1.5,-2.47 -3.7,-4.37 -6.6,-5.51 -2.3,-0.9 -4.4,-1.29 -6.3,-1.21 z M 242,144.9 55,149 127,341.9 Z m 28,0 115.4,197 71.2,-192.9 z m 102.6,23.9 19.2,42.5 7.2,-3.3 4.1,9.2 -7.1,3.2 6.3,14 -10.4,4.7 -6.3,-14 -30.2,13.6 -3.9,-8.7 c 1.4,-9.2 4.4,-27.8 8.9,-55.7 l 1.8,-0.8 0.8,-0.3 3.1,-1.5 z m -225.9,12.1 h 1.3 c 2.9,0 5.5,0.5 7.8,1.6 6.9,3.2 10.7,8.4 11.7,15.3 0.9,6.9 -1,15.3 -5.7,25.1 -4.7,9.7 -10,16.5 -15.8,20.3 -6,3.8 -12.3,4.1 -19.1,1 -5.9,-2.8 -9.4,-6.7 -10.6,-11.9 -1.2,-5.3 -0.9,-9.7 0.9,-13.5 l 9.6,4.4 c -0.9,1.7 -1.1,3.8 -0.8,6.3 0.3,2.6 1.9,4.5 5,6 3.1,1.4 6.1,1.3 9.2,-0.2 3.1,-1.4 6.3,-5.2 9.7,-11.3 0.5,-1 1.1,-2.1 1.7,-3.3 -1.8,1.2 -3.6,2 -5.5,2.6 -3.2,0.9 -6.6,0.5 -10.3,-1.2 -4.3,-2 -7.5,-5.5 -9.5,-10.6 -2.1,-5 -1.5,-10.7 1.6,-17.2 l 0.1,-0.1 c 1.1,-2.3 2.4,-4.4 4,-6 1.4,-1.7 3.1,-3.1 4.8,-4.2 3.1,-1.9 6.4,-3 9.9,-3.1 z M 52,186 v 173.2 l 62,-5.7 z m 408,0 -61.9,167.5 61.9,5.7 z m -91.9,0.6 c -1.6,9.7 -3.6,22.5 -6.2,38.2 l 19.6,-8.8 -8.2,-17.9 z m -219.7,4.1 c -1.5,0.1 -2.9,0.4 -4.3,1.1 -3,1.4 -5.1,3.5 -6.5,6.5 -1.6,3.4 -2.1,6.5 -1.2,9.6 0.9,3 2.7,5.1 5.4,6.4 2.8,1.3 5.7,1.3 8.5,0 2.8,-1.3 5.1,-3.6 6.8,-7 1.4,-2.9 1.7,-5.9 1,-9 -0.8,-3.1 -2.6,-5.3 -5.4,-6.6 -1.4,-0.7 -2.9,-1 -4.3,-1 z m 304.9,53.9 h 0.5 c 3.6,0.3 5.7,7 4.7,11.1 -0.1,18.6 1.1,39.2 -9.7,55.3 -0.9,1.2 -2.2,1.9 -3.7,2.5 -5.8,-4.1 -3,-11.3 1.2,-15.5 1,7.3 5.5,-2.9 6.6,-5.6 1.3,-3.2 3.6,-17.7 -1,-10.2 0.7,4 -6.8,13.1 -9.3,8.1 -5,-14.4 0,-30.5 7,-43.5 1.3,-1.4 2.5,-2.1 3.7,-2.2 z M 60,245.5 c 1,0.1 1,1 2,3.6 v 61.1 c -7,-7 -3,-17.4 -4,-26.4 -1,-7.6 2,-16.3 -1,-23.2 -5,-1.7 -6,-17 -3,-12.7 4,4.8 4,-2.7 6,-2.4 z m 390.9,10.6 c -1,0 -2,1 -2.8,3.7 -1.6,5.9 -3.3,13.4 -0.7,19.3 5.1,-2 5.4,-9.6 6.6,-14.5 1.2,-3.3 -0.9,-8.4 -3.1,-8.5 z M 75,268.2 c 4,-0.5 7,7.2 9,10.8 3.28,12.7 4.21,13.9 3,16.8 -5,-3.7 -4.87,-7.4 -5.36,-8.9 -1,-3 -1.64,-5.3 -3.64,-8.4 -3.34,2.8 -3,9.1 -3,13.4 0,-1.6 1,-2.3 4,-0.7 7,12.6 12,29.1 7,43.5 l -2,1.1 c -11,-5.8 -12,-19.4 -14,-30 -1,-12.3 -1,-24.7 2,-36.7 1,-0.6 2,-0.9 3,-0.9 z m 358.2,4.8 c 4.5,0.3 0.8,35.2 0.8,55 l -4.4,6.7 v -42.3 c -4.6,7.5 -9.1,9.1 -6.1,-0.9 4.9,-13.4 7.9,-18.6 9.7,-18.5 z M 77,299.2 c -4,4.7 -2,12.8 -1,18.4 2,5.5 7,10.2 6,1.6 0,-5.7 1,-11.8 -3,-16.4 0,-0.6 -1,-1.9 -2,-3.6 z m 66,69.4 113,123.1 112.8,-123.1 z m -21,0.3 -54,4.9 64,41.1 c -2,-2.7 -5,-5.7 -7,-8.8 -5,-6.9 -10,-13.6 -19,-16.6 -9,-6.5 -4,-5.3 3,-2.6 -1,-1.8 -1,-2.6 0,-2.6 2,-0.2 9,4.2 10,6.3 l 25,31.6 65,41.7 z m 268.2,0 -42.4,46.3 c 6.4,-3.1 11.3,-8.5 17,-12.4 2.4,-1.4 3.7,-1.9 4.3,-1.9 2.1,0 -5.4,7.1 -7.7,10.3 -9.4,9.8 -16,23 -28.6,29.1 l 18.9,-24.5 c -2.3,1.3 -6,3.2 -8.2,4.1 l -40.3,44 74.5,-47.6 c 5.4,-6.7 1.9,-5.6 -5.7,-0.9 l -11.4,6 c 11.4,-13.7 26.8,-23.6 40,-35.6 3.2,-1.5 9.5,-5.6 11,-5.7 0.8,-0.1 0.2,1 -2.8,4.2 l -12.6,16 c 10,-7.6 0.9,3.9 -4.5,5.5 -0.7,1 -1.4,2 -2.2,2.9 L 444,373.8 Z m -158.3,16.7 c 1.4,0 2.7,0.1 4.1,0.2 v 43.4 h -13 v -30 c -5,-1.4 -11,1.7 -16,-0.3 -4,-2.9 1,-6.8 5,-5.9 3,-0.1 7,0.2 9,-3.2 3.4,-3.1 7,-4.2 10.9,-4.2 z m 33.1,0.7 c 0,0 1,0.1 1,0.2 4,0.8 7,0.3 10,0.4 h 25.6 c 1.5,3 0.8,7.8 -3.3,7.9 -3.9,0.5 -7.8,-0.4 -11.7,0.2 -4.7,0.2 -9.6,-1.8 -14.6,0.4 -3,1.7 -4,8.5 1,6.1 4,-1.1 7.3,-1.8 10.8,-0.9 7,1.1 15,2.9 19.1,9.2 2.1,3.1 2.7,7.3 0.7,10.7 -3.6,6.5 -11.6,8.4 -18.3,9.7 -2.4,0.4 -4.7,1.4 -7.3,1.2 -7,-0.6 -15,-1.1 -20,-7.1 -3,-2.5 -3,-7.1 2,-6.7 3,-0.1 8,-0.4 10,3.5 3,3.7 9,3 13,2 3.6,-0.5 7.5,-2.6 7.6,-6.7 0.6,-4.2 -3.1,-7.2 -6.9,-7.8 -5.7,-2.3 -11.7,1.4 -17.7,1.8 -3,1.1 -9,0.5 -9,-4.4 1,-4.2 3,-8.1 3,-12.5 0,-3 2,-7 5,-7.2 z m 133.5,5 c -0.2,-0.2 -7,5.8 -9.9,8.1 l -15.8,13.1 c 8.6,-4.4 16.5,-9.6 22.3,-17.4 2.6,-2.6 3.5,-3.7 3.4,-3.8 z M 151,405.5 c 3,0 8,4.6 10,7 l 26,31.1 c -8,-2.1 -13,-7.1 -18,-13.7 -6,-7.3 -11,-16.6 -21,-19.6 -9,-5 -5,-6.4 2,-2.2 0,-1.9 0,-2.6 1,-2.6 z"
     id="path2"
     sodipodi:nodetypes="cccccccccccccccccccccscccccccccccccccccccccccccccccccccccccccccscccccccccccccccccccccccccccscccccccccccccccccccccccccccccccccccccccsccccccccccccccccccccccccccccccccccccccccccccccccccccccccccccccccccccsccccccccccccccccscccccccscccccccccccccccccccccscscccsscccccs" />
  <path
     d="m 256.66988,153.35272 -49.99701,86.59737 c 13.59287,-6.0956 30.97624,-9.61018 49.99701,-9.61018 19.02077,0 36.40481,3.51458 49.99701,9.61018 z m 0,89.04243 c -9.86934,0 -17.74031,7.86896 -17.74031,17.73897 0,5.71655 2.64397,10.75871 6.78404,13.99335 -0.60674,-1.86057 -0.91947,-3.80442 -0.92685,-5.76141 0,-10.38949 8.42233,-18.81183 18.81182,-18.81183 3.03815,0.004 6.02993,0.74541 8.71948,2.15843 -2.97748,-5.56854 -8.836,-9.31818 -15.64818,-9.31818 z m -25.56909,2.50199 c -8.4757,1.71979 -16.02588,4.23786 -22.15496,7.3024 -11.80679,5.90339 -17.5528,13.2319 -17.5528,19.81905 0,6.58782 5.74601,13.91433 17.5528,19.81771 11.80678,5.9034 28.8486,9.8064 47.72405,9.8064 18.87546,0 35.91727,-3.903 47.72405,-9.8064 11.80678,-5.90338 17.5528,-13.22989 17.5528,-19.81771 0,-6.58715 -5.74602,-13.91633 -17.5528,-19.81905 -6.12974,-3.06454 -13.67926,-5.58261 -22.15496,-7.3024 2.67879,4.46689 4.2258,9.67915 4.2258,15.23698 0,16.38417 -13.41072,29.79488 -29.79489,29.79488 -16.38418,0 -29.79488,-13.41071 -29.79488,-29.79488 0,-5.55849 1.54701,-10.77076 4.22579,-15.23698 z M 143.60938,349.17856 H 369.72904 L 331.48256,282.932 c -3.85947,8.08862 -11.83825,14.7568 -21.69823,19.6878 -14.00138,6.99968 -32.61097,11.07681 -53.11512,11.07681 -20.50415,0 -39.11374,-4.07713 -53.11379,-11.07681 -9.86131,-4.931 -17.84076,-11.59918 -21.69823,-19.68914 z"
     style="fill:#000000;stroke-width:0.669699"
     id="path303" />
</svg>
